<svg width="1220" height="229" viewBox="0 0 1220 229" fill="none" xmlns="http://www.w3.org/2000/svg">
<g clipPath="url(#clip0_6124_736)">
<rect width="1220" height="229" rx="5" fill="#B9ECCF" style="fill:#B9ECCF;fill:color(display-p3 0.7246 0.9250 0.8105);fill-opacity:1;"/>
<path d="M1053.98 403.756C887.955 391.513 576.566 178.616 537 -189H1220L1220 416C1220 416 1220 416 1053.98 403.756Z" fill="#60DC98" style="fill:#60DC98;fill:color(display-p3 0.3773 0.8625 0.5954);fill-opacity:1;"/>
<path d="M127.616 -90.9433C403.297 -94.6279 494.587 81.4729 525 363H0L2.56096e-05 -89.7151C25.67 -89.9262 66.0899 -90.121 127.616 -90.9433Z" fill="#33D37B" style="fill:#33D37B;fill:color(display-p3 0.2004 0.8292 0.4829);fill-opacity:1;"/>
<path d="M82.8125 136V90.75H113.188V98.5H92.1875V109.5H111.625V117.25H92.1875V128.25H113.25V136H82.8125ZM129.562 116.375V136H120.312V102.062H129.125V108H129.5C131.031 104.094 134.656 101.625 139.688 101.625C146.781 101.625 151.406 106.469 151.375 114.375V136H142.188V116C142.156 111.812 139.906 109.312 136.062 109.312C132.219 109.312 129.562 111.906 129.562 116.375ZM176.438 102.062V109H170.062V125.562C170.031 128.281 171.375 128.938 173.25 129C174.188 129 175.812 128.906 176.938 128.812V136.125C175.938 136.281 174.281 136.469 172 136.438C165.312 136.469 160.75 133.469 160.812 126.875V109H156.125V102.062H160.812V93.9375H170.062V102.062H176.438ZM182.25 136V102.062H191.188V107.938H191.562C192.781 103.781 195.938 101.562 199.75 101.562C200.688 101.562 201.875 101.688 202.688 101.875V110.125C201.812 109.844 200.031 109.625 198.75 109.625C194.562 109.625 191.469 112.531 191.5 116.688V136H182.25ZM213.688 148.75C211.875 148.719 210.188 148.688 209 148.562V141.375C210.188 141.469 211.594 141.5 212.75 141.5C214.594 141.5 216.062 141.312 217.188 138.375L217.75 136.938L205.562 102.062H215.25L222.375 127.062H222.75L229.938 102.062H239.75L226.5 139.75C224.562 145.219 220.844 148.719 213.688 148.75ZM260.375 136H244.438V90.75H260.562C274.188 90.75 282.531 99.2188 282.5 113.312C282.531 127.469 274.188 136 260.375 136ZM253.812 127.938H260C268.625 127.938 273.125 123.469 273.125 113.312C273.125 103.25 268.625 98.8125 260.062 98.8125H253.812V127.938ZM313.875 103.688C313.5 100.094 310.656 98 306.062 98C301.312 98 298.656 100.188 298.625 103.188C298.594 106.469 301.969 107.938 305.875 108.812L309.938 109.812C317.688 111.594 323.469 115.531 323.5 123.062C323.469 131.344 317.031 136.656 306 136.625C295.062 136.656 288.094 131.594 287.812 121.875H296.938C297.25 126.438 300.875 128.75 305.875 128.75C310.812 128.75 314 126.438 314 123.062C314 119.969 311.188 118.531 306.25 117.312L301.312 116.125C293.688 114.25 289 110.438 289 103.812C288.969 95.5938 296.219 90.125 306.125 90.125C316.156 90.125 322.75 95.6875 322.875 103.688H313.875ZM329.625 90.75H341.25L353.812 121.438H354.312L366.875 90.75H378.5V136H369.375V106.375H369L357.188 135.812H350.938L339.125 106.25H338.75V136H329.625V90.75Z" fill="white" style="fill:white;fill:white;fill-opacity:1;"/>
<path d="M709.617 76.2422V108.234H705.363V92.168H702.27V106.688H698.156V76.7695H702.27V88.582H705.363V76.2422H709.617ZM682.863 100.992V79.9336H694.781V83.5547H687.363V97.2305C690.457 97.1777 693.199 97.002 696.293 96.457L696.609 100.113C692.707 100.852 689.297 100.975 685.078 100.992H682.863ZM729.34 78.3516V81.9727H719.25V90.9199C724.436 90.8848 727.424 90.6738 730.746 89.9883L731.133 93.5391C727.336 94.4355 723.943 94.5234 717.316 94.5234H714.785V78.3516H729.34ZM718.055 100.5V96.9141H740.027V108.234H735.562V100.5H718.055ZM727.793 87.8438V84.2227H735.562V76.2422H740.027V95.543H735.562V87.8438H727.793ZM773.461 100.816V104.402H744.176V100.816H756.41V93.5742H760.875V100.816H773.461ZM744.879 90.8672C752.121 89.7422 756.199 84.873 756.234 80.3555V78.0703H761.016V80.3555C760.998 84.9258 765.129 89.7422 772.441 90.8672L770.543 94.5938C764.918 93.5742 760.734 90.5684 758.625 86.5781C756.533 90.5508 752.367 93.5918 746.777 94.5938L744.879 90.8672ZM804.574 100.781V104.508H775.289V100.781H804.574ZM777.574 82.6406V79.0547H802.113V82.6406H797.613V92.3438H801.973V95.8594H777.715V92.3438H782.004V82.6406H777.574ZM786.504 92.3438H793.184V82.6406H786.504V92.3438ZM832.488 92.7656V96.3164H809.848V78.5977H832.242V82.2188H814.418V85.5938H831.504V89.1094H814.418V92.7656H832.488ZM806.402 104.508V100.852H835.688V104.508H806.402ZM845.566 78.0352C849.627 78.0352 852.65 80.5488 852.668 84.1172C852.65 87.6855 849.627 90.1641 845.566 90.1641C841.4 90.1641 838.377 87.6855 838.395 84.1172C838.377 80.5488 841.4 78.0352 845.566 78.0352ZM837.059 91.8516C841.365 91.8867 848.273 91.8516 853.336 91.0781L853.688 94.418C851.771 94.7871 849.662 95.0332 847.57 95.209V105.703H843.352V95.4375C841.207 95.5078 839.186 95.5078 837.551 95.5078L837.059 91.8516ZM842.367 84.1172C842.367 85.8223 843.633 86.8418 845.566 86.8594C847.412 86.8418 848.678 85.8223 848.695 84.1172C848.678 82.4121 847.412 81.3398 845.566 81.3398C843.633 81.3398 842.367 82.4121 842.367 84.1172ZM849.855 100.219V96.8086H854.953V76.7695H859.172V106.758H854.953V100.219H849.855ZM861.422 108.234V76.2422H865.641V108.234H861.422ZM877.453 78.4922C881.777 78.4922 885.012 82.043 885.645 87.8086H891.199V76.2422H895.629V108.305H891.199V91.3945H885.697C885.223 97.5469 881.918 101.309 877.453 101.309C872.602 101.309 869.121 96.9141 869.156 89.8828C869.121 82.9043 872.602 78.4922 877.453 78.4922ZM873.445 89.8828C873.428 94.6465 875.062 97.248 877.453 97.2305C879.861 97.248 881.461 94.6465 881.461 89.8828C881.461 85.1367 879.861 82.5352 877.453 82.5352C875.062 82.5352 873.428 85.1367 873.445 89.8828ZM916.125 79.2656V100.43H900.762V79.2656H916.125ZM905.191 96.8789H911.66V82.7812H905.191V96.8789ZM920.484 108.234V76.2422H924.984V88.3008H929.695V92.0273H924.984V108.234H920.484ZM957.645 76.2422V108.305H953.109V76.2422H957.645ZM931.805 89.8828C931.787 82.9043 935.355 78.4922 940.277 78.4922C945.094 78.4922 948.68 82.9043 948.68 89.8828C948.68 96.9141 945.094 101.309 940.277 101.309C935.355 101.309 931.787 96.9141 931.805 89.8828ZM936.129 89.8828C936.111 94.6465 937.781 97.248 940.277 97.2305C942.703 97.248 944.338 94.6465 944.355 89.8828C944.338 85.1367 942.703 82.5352 940.277 82.5352C937.781 82.5352 936.111 85.1367 936.129 89.8828ZM978.809 80.4609C978.791 85.1543 982.957 90.1641 990.199 91.3945L988.23 95.1211C982.641 94.0137 978.51 90.8672 976.436 86.7715C974.326 90.832 970.178 93.9961 964.641 95.1211L962.707 91.3945C969.826 90.1289 973.992 85.1016 974.027 80.4609V78.1406H978.809V80.4609ZM961.969 104.297V100.605H991.254V104.297H961.969ZM1020.08 76.2422V108.305H1015.65V91.1484H1010.03V87.5273H1015.65V76.2422H1020.08ZM994.559 101.062V78.9141H1009.5V82.5352H999.023V87.8438H1008.34V91.3594H999.023V97.4062C1003.47 97.3711 1007.02 97.2129 1010.98 96.5977L1011.43 100.184C1006.76 100.887 1002.57 101.045 997.09 101.062H994.559ZM1050.56 79.0195V82.043C1050.54 86.0508 1050.54 90.5508 1049.26 97.3359L1044.76 96.8789C1045.99 90.832 1046.04 86.332 1046.06 82.5703H1027.22V79.0195H1050.56ZM1024.2 104.332V100.676H1034.64V89.6719H1039.1V100.676H1053.38V104.332H1024.2ZM1084.56 90.8672V94.5234H1055.31V90.8672H1084.56ZM1058.65 102.328C1058.65 98.5664 1062.87 96.4395 1069.86 96.457C1076.81 96.4395 1080.97 98.5664 1081.01 102.328C1080.97 106.107 1076.81 108.252 1069.86 108.234C1062.87 108.252 1058.65 106.107 1058.65 102.328ZM1058.86 88.6172V77.0859H1081.04V80.707H1063.32V85.0664H1081.22V88.6172H1058.86ZM1063.22 102.328C1063.2 104.016 1065.43 104.824 1069.86 104.824C1074.21 104.824 1076.49 104.016 1076.51 102.328C1076.49 100.711 1074.21 99.8672 1069.86 99.8672C1065.43 99.8672 1063.2 100.711 1063.22 102.328ZM1105.41 79.0898V82.6406H1086.42V79.0898H1093.7V76.0664H1098.16V79.0898H1105.41ZM1087.97 89.5664C1087.97 86.0508 1091.27 83.6777 1095.91 83.6602C1100.57 83.6777 1103.79 86.0508 1103.79 89.5664C1103.79 93.082 1100.57 95.4551 1095.91 95.4727C1091.27 95.4551 1087.97 93.082 1087.97 89.5664ZM1090.25 101.238V97.6523H1111.8V108.234H1107.3V101.238H1090.25ZM1092.36 89.5664C1092.35 91.2012 1093.77 92.0449 1095.91 92.0273C1098.08 92.0449 1099.54 91.2012 1099.54 89.5664C1099.54 87.9141 1098.08 87.0352 1095.91 87.0352C1093.77 87.0352 1092.35 87.9141 1092.36 89.5664ZM1107.3 96.3164V76.2422H1111.8V84.5391H1116.13V88.1953H1111.8V96.3164H1107.3ZM1144.08 79.0195V82.1484C1144.06 86.0508 1144.06 90.4277 1142.88 96.8789L1138.49 96.4922C1139.53 90.6211 1139.56 86.2793 1139.58 82.5703H1120.42V79.0195H1144.08ZM1117.54 104.332V100.676H1123.76V90.6211H1128.22V100.676H1131.74V90.6211H1136.17V100.676H1146.71V104.332H1117.54Z" fill="white" style="fill:white;fill:white;fill-opacity:1;"/>
<path d="M909.281 119.488V136.398H905.941V119.488H909.281ZM883.793 128.242C883.811 123.918 887.361 120.912 892.195 120.93C897.012 120.912 900.562 123.918 900.562 128.242C900.562 132.549 897.012 135.555 892.195 135.52C887.361 135.555 883.811 132.549 883.793 128.242ZM887.062 128.242C887.045 130.967 889.207 132.777 892.195 132.777C895.148 132.777 897.293 130.967 897.293 128.242C897.293 125.553 895.148 123.725 892.195 123.742C889.207 123.725 887.045 125.553 887.062 128.242ZM888.68 150.602V137.91H891.949V141.461H905.977V137.91H909.281V150.602H888.68ZM891.949 147.859H905.977V144.098H891.949V147.859ZM933.082 122.688V125.359H914.309V122.688H922.043V119.348H925.383V122.688H933.082ZM916.031 132.496C916.014 129.051 919.143 126.801 923.695 126.766C928.23 126.801 931.324 129.051 931.324 132.496C931.324 135.959 928.23 138.227 923.695 138.227C919.143 138.227 916.014 135.959 916.031 132.496ZM918.211 143.5V140.793H939.023V150.988H935.684V143.5H918.211ZM919.266 132.496C919.23 134.447 921.023 135.625 923.695 135.625C926.367 135.625 928.16 134.447 928.195 132.496C928.16 130.562 926.367 129.35 923.695 129.332C921.023 129.35 919.23 130.562 919.266 132.496ZM935.684 139.176V119.488H939.023V128.031H943.594V130.809H939.023V139.176H935.684ZM968.379 139.281C975.199 139.281 979.506 141.443 979.523 145.117C979.506 148.773 975.199 150.936 968.379 150.918C961.629 150.936 957.305 148.773 957.305 145.117C957.305 141.443 961.629 139.281 968.379 139.281ZM954.211 136.68V133.973H965.707V128.066H968.977V133.973H982.863V136.68H954.211ZM957.551 123.707V121.035H979.277V123.672C979.295 126.186 979.295 128.787 978.398 132.039L975.129 131.688C975.973 128.471 975.973 126.15 975.973 123.707H957.551ZM960.645 145.117C960.609 147.156 963.615 148.334 968.379 148.352C973.195 148.334 976.184 147.156 976.219 145.117C976.184 143.043 973.195 141.83 968.379 141.812C963.615 141.83 960.609 143.043 960.645 145.117ZM996.75 124.023C996.732 128.383 999.686 132.373 1004.55 133.973L1002.87 136.609C999.211 135.344 996.486 132.777 995.062 129.49C993.656 133.006 990.879 135.801 987.152 137.137L985.465 134.535C990.369 132.795 993.322 128.523 993.34 124.023V121H996.75V124.023ZM990.07 142.621V139.914H1011.41V150.988H1008.07V142.621H990.07ZM1008.07 138.402V119.488H1011.41V138.402H1008.07ZM1050.4 141.496V150.602H1028.64V141.496H1050.4ZM1025.19 139.352V136.715H1037.88V134.57C1032.31 134.342 1029.18 132.848 1029.2 130.141C1029.18 127.205 1032.93 125.693 1039.54 125.676C1046.18 125.693 1049.89 127.205 1049.87 130.141C1049.89 132.848 1046.81 134.342 1041.22 134.57V136.715H1053.91V139.352H1025.19ZM1026.67 124.551V121.984H1037.88V119.066H1041.22V121.984H1052.3V124.551H1026.67ZM1031.94 148.035H1047.16V144.062H1031.94V148.035ZM1032.75 130.141C1032.73 131.564 1035.14 132.32 1039.54 132.32C1043.96 132.32 1046.32 131.564 1046.32 130.141C1046.32 128.699 1043.96 127.996 1039.54 127.961C1035.14 127.996 1032.73 128.699 1032.75 130.141ZM1083.55 119.488V150.988H1080.35V119.488H1083.55ZM1055.95 140.582C1056.87 140.582 1057.92 140.582 1059.05 140.564V126.098H1056.62V123.355H1071.07V126.098H1068.64V140.178C1069.72 140.09 1070.75 139.967 1071.7 139.844L1071.95 142.27C1066.96 143.254 1060.42 143.395 1056.34 143.395L1055.95 140.582ZM1062.07 140.512C1063.21 140.494 1064.39 140.441 1065.55 140.389V126.098H1062.07V140.512ZM1070.23 134.289V131.301H1074.16V120.191H1077.33V149.371H1074.16V134.289H1070.23ZM1113.5 119.488V151.059H1110.16V119.488H1113.5ZM1088.51 132.883C1088.51 126.15 1091.9 121.861 1096.66 121.844C1101.34 121.861 1104.79 126.15 1104.79 132.883C1104.79 139.686 1101.34 143.975 1096.66 143.957C1091.9 143.975 1088.51 139.686 1088.51 132.883ZM1091.74 132.883C1091.72 137.893 1093.73 140.969 1096.66 140.969C1099.55 140.969 1101.55 137.893 1101.55 132.883C1101.55 127.943 1099.55 124.85 1096.66 124.832C1093.73 124.85 1091.72 127.943 1091.74 132.883ZM1130.13 128.77C1130.12 134.043 1133.58 139.492 1138.43 141.566L1136.6 144.168C1132.89 142.533 1129.94 139.053 1128.48 134.852C1127.02 139.352 1124.07 143.184 1120.39 144.977L1118.46 142.34C1123.21 140.107 1126.72 134.201 1126.76 128.77V125.43H1119.55V122.652H1137.3V125.43H1130.13V128.77ZM1141.28 150.988V119.488H1144.62V150.988H1141.28Z" fill="white" style="fill:white;fill:white;fill-opacity:1;"/>
</g>
<defs>
<clipPath id="clip0_6124_736">
<rect width="1220" height="229" rx="5" fill="white" style="fill:white;fill:white;fill-opacity:1;"/>
</clipPath>
</defs>
</svg>
