<svg width="28" height="29" viewBox="0 0 28 29" fill="none" xmlns="http://www.w3.org/2000/svg">
<path d="M18.13 13.6716L11.5267 7.07996C11.4182 6.97061 11.2892 6.88382 11.147 6.82459C11.0049 6.76536 10.8524 6.73486 10.6984 6.73486C10.5443 6.73486 10.3918 6.76536 10.2497 6.82459C10.1075 6.88382 9.97848 6.97061 9.87002 7.07996C9.65273 7.29855 9.53076 7.59424 9.53076 7.90246C9.53076 8.21068 9.65273 8.50637 9.87002 8.72496L15.645 14.5583L9.87002 20.3333C9.65273 20.5519 9.53076 20.8476 9.53076 21.1558C9.53076 21.464 9.65273 21.7597 9.87002 21.9783C9.97807 22.0885 10.1069 22.1762 10.2491 22.2363C10.3913 22.2964 10.544 22.3277 10.6984 22.3283C10.8527 22.3277 11.0054 22.2964 11.1476 22.2363C11.2898 22.1762 11.4186 22.0885 11.5267 21.9783L18.13 15.3866C18.2484 15.2774 18.343 15.1448 18.4076 14.9972C18.4722 14.8496 18.5056 14.6902 18.5056 14.5291C18.5056 14.368 18.4722 14.2086 18.4076 14.0611C18.343 13.9135 18.2484 13.7809 18.13 13.6716V13.6716Z" fill="#969696" style="fill:#969696;fill:color(display-p3 0.5875 0.5875 0.5875);fill-opacity:1;"/>
</svg>
