<svg width="90" height="90" viewBox="0 0 90 90" fill="none" xmlns="http://www.w3.org/2000/svg">
<rect x="0.5" y="0.5" width="89" height="89" rx="44.5" fill="#FF7E36"/>
<path d="M47.4916 45.4218C48.5143 44.5366 49.3346 43.4417 49.8968 42.2115C50.459 40.9812 50.7499 39.6444 50.7499 38.2918C50.7499 35.7502 49.7402 33.3126 47.943 31.5154C46.1458 29.7182 43.7082 28.7085 41.1666 28.7085C38.6249 28.7085 36.1874 29.7182 34.3901 31.5154C32.5929 33.3126 31.5833 35.7502 31.5833 38.2918C31.5832 39.6444 31.8742 40.9812 32.4364 42.2115C32.9986 43.4417 33.8189 44.5366 34.8416 45.4218C32.1585 46.6368 29.8821 48.5988 28.2846 51.0732C26.6871 53.5477 25.8361 56.4298 25.8333 59.3752C25.8333 59.8835 26.0352 60.371 26.3946 60.7305C26.7541 61.0899 27.2416 61.2918 27.7499 61.2918C28.2583 61.2918 28.7458 61.0899 29.1052 60.7305C29.4647 60.371 29.6666 59.8835 29.6666 59.3752C29.6666 56.3252 30.8782 53.4001 33.0349 51.2434C35.1915 49.0868 38.1166 47.8752 41.1666 47.8752C44.2166 47.8752 47.1416 49.0868 49.2983 51.2434C51.455 53.4001 52.6666 56.3252 52.6666 59.3752C52.6666 59.8835 52.8685 60.371 53.228 60.7305C53.5874 61.0899 54.0749 61.2918 54.5833 61.2918C55.0916 61.2918 55.5791 61.0899 55.9385 60.7305C56.298 60.371 56.4999 59.8835 56.4999 59.3752C56.4971 56.4298 55.6461 53.5477 54.0485 51.0732C52.451 48.5988 50.1747 46.6368 47.4916 45.4218ZM41.1666 44.0418C40.0293 44.0418 38.9176 43.7046 37.9721 43.0728C37.0265 42.441 36.2895 41.5429 35.8543 40.4923C35.4191 39.4416 35.3052 38.2855 35.5271 37.1701C35.7489 36.0547 36.2966 35.0301 37.1007 34.226C37.9049 33.4218 38.9294 32.8742 40.0448 32.6523C41.1602 32.4304 42.3163 32.5443 43.367 32.9795C44.4177 33.4147 45.3157 34.1517 45.9475 35.0973C46.5794 36.0429 46.9166 37.1546 46.9166 38.2918C46.9166 39.8168 46.3108 41.2794 45.2325 42.3577C44.1541 43.436 42.6916 44.0418 41.1666 44.0418ZM62.0774 45.0002L63.6108 43.486C63.7895 43.3073 63.9312 43.0951 64.0279 42.8616C64.1246 42.6282 64.1744 42.3779 64.1744 42.1252C64.1744 41.8724 64.1246 41.6222 64.0279 41.3887C63.9312 41.1552 63.7895 40.943 63.6108 40.7643C63.432 40.5856 63.2199 40.4439 62.9864 40.3471C62.7529 40.2504 62.5027 40.2007 62.2499 40.2007C61.9972 40.2007 61.7469 40.2504 61.5134 40.3471C61.28 40.4439 61.0678 40.5856 60.8891 40.7643L59.3749 42.2977L57.8608 40.7643C57.682 40.5856 57.4699 40.4439 57.2364 40.3471C57.0029 40.2504 56.7526 40.2007 56.4999 40.2007C55.9895 40.2007 55.5 40.4034 55.1391 40.7643C54.9604 40.943 54.8186 41.1552 54.7219 41.3887C54.6252 41.6222 54.5754 41.8724 54.5754 42.1252C54.5754 42.6356 54.7782 43.1251 55.1391 43.486L56.6724 45.0002L55.1391 46.5143C54.9594 46.6925 54.8169 46.9045 54.7195 47.1381C54.6222 47.3716 54.5721 47.6221 54.5721 47.8752C54.5721 48.1282 54.6222 48.3787 54.7195 48.6123C54.8169 48.8458 54.9594 49.0578 55.1391 49.236C55.3173 49.4156 55.5293 49.5582 55.7628 49.6555C55.9964 49.7528 56.2469 49.8029 56.4999 49.8029C56.7529 49.8029 57.0035 49.7528 57.237 49.6555C57.4706 49.5582 57.6826 49.4156 57.8608 49.236L59.3749 47.7027L60.8891 49.236C61.0673 49.4156 61.2793 49.5582 61.5128 49.6555C61.7464 49.7528 61.9969 49.8029 62.2499 49.8029C62.5029 49.8029 62.7535 49.7528 62.987 49.6555C63.2206 49.5582 63.4326 49.4156 63.6108 49.236C63.7904 49.0578 63.933 48.8458 64.0303 48.6123C64.1276 48.3787 64.1777 48.1282 64.1777 47.8752C64.1777 47.6221 64.1276 47.3716 64.0303 47.1381C63.933 46.9045 63.7904 46.6925 63.6108 46.5143L62.0774 45.0002Z" fill="white"/>
<rect x="0.5" y="0.5" width="89" height="89" rx="44.5" stroke="#E6E6E6"/>
</svg>
