<svg width="90" height="90" viewBox="0 0 90 90" fill="none" xmlns="http://www.w3.org/2000/svg">
<rect x="0.5" y="0.5" width="89" height="89" rx="44.5" fill="#FF7E36"/>
<path d="M60.6783 41.531C59.2997 41.2815 57.901 41.1596 56.5 41.1668C55.695 41.1668 54.9092 41.1668 54.1233 41.3202C53.145 40.0147 51.8963 38.9359 50.4625 38.1577C51.6941 36.8126 52.3778 35.0555 52.3792 33.2318C52.3792 31.2697 51.5997 29.3879 50.2123 28.0004C48.8248 26.613 46.943 25.8335 44.9808 25.8335C43.0187 25.8335 41.1369 26.613 39.7494 28.0004C38.362 29.3879 37.5825 31.2697 37.5825 33.2318C37.5839 35.0555 38.2676 36.8126 39.4992 38.1577C38.0739 38.94 36.8272 40.0105 35.8383 41.301C35.0908 41.1668 34.305 41.1668 33.5 41.1668C32.0978 41.1723 30.6991 41.307 29.3217 41.5693C28.8752 41.651 28.4721 41.8884 28.1843 42.2394C27.8965 42.5904 27.7426 43.0322 27.75 43.486V59.2985C27.7496 59.5801 27.8111 59.8583 27.9304 60.1134C28.0497 60.3685 28.2237 60.5941 28.44 60.7743C28.655 60.9556 28.9073 61.0874 29.1789 61.1602C29.4505 61.2331 29.7348 61.2453 30.0117 61.196C31.1586 60.9462 32.3266 60.805 33.5 60.7743C37.2128 60.7703 40.845 61.8566 43.9458 63.8985L44.195 63.9943C44.4492 64.1047 44.7229 64.1633 45 64.1668C45.1829 64.1645 45.3643 64.1322 45.5367 64.071H45.6708L45.92 63.9752C49.0504 61.8808 52.7337 60.7665 56.5 60.7743C57.671 60.7798 58.8389 60.8953 59.9883 61.1193C60.2652 61.1687 60.5495 61.1564 60.8211 61.0836C61.0928 61.0107 61.345 60.8789 61.56 60.6977C61.7764 60.5175 61.9504 60.2918 62.0696 60.0367C62.1889 59.7816 62.2505 59.5034 62.25 59.2218V43.4093C62.2484 42.9621 62.0904 42.5294 61.8033 42.1864C61.5163 41.8434 61.1183 41.6115 60.6783 41.531ZM45 29.6668C45.8979 29.7328 46.7375 30.136 47.3503 30.7955C47.9632 31.455 48.3038 32.322 48.3038 33.2222C48.3038 34.1225 47.9632 34.9895 47.3503 35.649C46.7375 36.3085 45.8979 36.7117 45 36.7777C44.1022 36.7117 43.2625 36.3085 42.6497 35.649C42.0368 34.9895 41.6962 34.1225 41.6962 33.2222C41.6962 32.322 42.0368 31.455 42.6497 30.7955C43.2625 30.136 44.1022 29.7328 45 29.6668ZM43.0833 59.0493C40.0793 57.6608 36.8095 56.9414 33.5 56.941C32.8675 56.941 32.235 56.941 31.5833 57.0368V45.0002C33.1906 44.8204 34.8145 44.8526 36.4133 45.096H36.6242C38.9081 45.5157 41.0967 46.347 43.0833 47.5493V59.0493ZM45 44.2335C44.1477 43.7418 43.2642 43.3065 42.355 42.9302H42.24C41.6075 42.681 40.975 42.4318 40.3233 42.2402C41.6541 41.181 43.2993 40.5944 45 40.5727C46.6962 40.5834 48.3409 41.1564 49.6767 42.2018C48.0496 42.7098 46.4817 43.3909 45 44.2335ZM58.4167 57.0368C54.4811 56.6414 50.5113 57.303 46.9167 58.9535V47.4535C48.9069 46.282 51.0969 45.4892 53.3758 45.1152H53.7592C55.3001 44.8752 56.8658 44.8365 58.4167 45.0002V57.0368Z" fill="white"/>
<rect x="0.5" y="0.5" width="89" height="89" rx="44.5" stroke="#E6E6E6"/>
</svg>
