<svg width="18" height="18" viewBox="0 0 18 18" fill="none" xmlns="http://www.w3.org/2000/svg">
<path d="M14.25 15H3.75C3.55109 15 3.36032 15.079 3.21967 15.2197C3.07902 15.3603 3 15.5511 3 15.75C3 15.9489 3.07902 16.1397 3.21967 16.2803C3.36032 16.421 3.55109 16.5 3.75 16.5H14.25C14.4489 16.5 14.6397 16.421 14.7803 16.2803C14.921 16.1397 15 15.9489 15 15.75C15 15.5511 14.921 15.3603 14.7803 15.2197C14.6397 15.079 14.4489 15 14.25 15ZM8.4675 13.2825C8.53883 13.3508 8.62294 13.4043 8.715 13.44C8.80478 13.4797 8.90185 13.5002 9 13.5002C9.09815 13.5002 9.19522 13.4797 9.285 13.44C9.37706 13.4043 9.46117 13.3508 9.5325 13.2825L12.5325 10.2825C12.6737 10.1413 12.7531 9.94973 12.7531 9.75C12.7531 9.55027 12.6737 9.35873 12.5325 9.2175C12.3913 9.07627 12.1997 8.99693 12 8.99693C11.8003 8.99693 11.6087 9.07627 11.4675 9.2175L9.75 10.9425V2.25C9.75 2.05109 9.67098 1.86032 9.53033 1.71967C9.38968 1.57902 9.19891 1.5 9 1.5C8.80109 1.5 8.61032 1.57902 8.46967 1.71967C8.32902 1.86032 8.25 2.05109 8.25 2.25V10.9425L6.5325 9.2175C6.46257 9.14757 6.37955 9.0921 6.28819 9.05426C6.19682 9.01641 6.09889 8.99693 6 8.99693C5.90111 8.99693 5.80318 9.01641 5.71181 9.05426C5.62045 9.0921 5.53743 9.14757 5.4675 9.2175C5.39757 9.28743 5.3421 9.37045 5.30426 9.46181C5.26641 9.55318 5.24693 9.65111 5.24693 9.75C5.24693 9.84889 5.26641 9.94682 5.30426 10.0382C5.3421 10.1296 5.39757 10.2126 5.4675 10.2825L8.4675 13.2825Z" fill="white"/>
</svg>
