<svg width="90" height="90" viewBox="0 0 90 90" fill="none" xmlns="http://www.w3.org/2000/svg">
<rect x="0.5" y="0.5" width="89" height="89" rx="44.5" fill="#FF7E36"/>
<path d="M47.4916 45.4218C48.5143 44.5366 49.3346 43.4417 49.8968 42.2115C50.459 40.9812 50.7499 39.6444 50.7499 38.2918C50.7499 35.7502 49.7402 33.3126 47.943 31.5154C46.1458 29.7182 43.7082 28.7085 41.1666 28.7085C38.6249 28.7085 36.1874 29.7182 34.3901 31.5154C32.5929 33.3126 31.5833 35.7502 31.5833 38.2918C31.5832 39.6444 31.8742 40.9812 32.4364 42.2115C32.9986 43.4417 33.8189 44.5366 34.8416 45.4218C32.1585 46.6368 29.8821 48.5988 28.2846 51.0732C26.6871 53.5477 25.8361 56.4298 25.8333 59.3752C25.8333 59.8835 26.0352 60.371 26.3946 60.7305C26.7541 61.0899 27.2416 61.2918 27.7499 61.2918C28.2583 61.2918 28.7458 61.0899 29.1052 60.7305C29.4647 60.371 29.6666 59.8835 29.6666 59.3752C29.6666 56.3252 30.8782 53.4001 33.0349 51.2434C35.1915 49.0868 38.1166 47.8752 41.1666 47.8752C44.2166 47.8752 47.1416 49.0868 49.2983 51.2434C51.455 53.4001 52.6666 56.3252 52.6666 59.3752C52.6666 59.8835 52.8685 60.371 53.228 60.7305C53.5874 61.0899 54.0749 61.2918 54.5833 61.2918C55.0916 61.2918 55.5791 61.0899 55.9385 60.7305C56.298 60.371 56.4999 59.8835 56.4999 59.3752C56.4971 56.4298 55.6461 53.5477 54.0485 51.0732C52.451 48.5988 50.1747 46.6368 47.4916 45.4218ZM41.1666 44.0418C40.0293 44.0418 38.9176 43.7046 37.9721 43.0728C37.0265 42.441 36.2895 41.5429 35.8543 40.4923C35.4191 39.4416 35.3052 38.2855 35.5271 37.1701C35.7489 36.0547 36.2966 35.0301 37.1007 34.226C37.9049 33.4218 38.9294 32.8742 40.0448 32.6523C41.1602 32.4304 42.3163 32.5443 43.367 32.9795C44.4177 33.4147 45.3157 34.1517 45.9475 35.0973C46.5794 36.0429 46.9166 37.1546 46.9166 38.2918C46.9166 39.8168 46.3108 41.2794 45.2325 42.3577C44.1541 43.436 42.6916 44.0418 41.1666 44.0418ZM63.6107 39.4993C63.4326 39.3197 63.2206 39.1771 62.987 39.0798C62.7535 38.9825 62.5029 38.9324 62.2499 38.9324C61.9969 38.9324 61.7464 38.9825 61.5128 39.0798C61.2792 39.1771 61.0673 39.3197 60.8891 39.4993L57.0558 43.3327L55.8674 42.1252C55.6892 41.9455 55.4773 41.8029 55.2437 41.7056C55.0101 41.6083 54.7596 41.5582 54.5066 41.5582C54.2536 41.5582 54.003 41.6083 53.7695 41.7056C53.5359 41.8029 53.3239 41.9455 53.1458 42.1252C52.7888 42.4843 52.5884 42.9701 52.5884 43.4764C52.5884 43.9828 52.7888 44.4686 53.1458 44.8277L55.7141 47.396C56.0732 47.753 56.559 47.9534 57.0653 47.9534C57.5717 47.9534 58.0575 47.753 58.4166 47.396L63.5341 42.2785C63.7276 42.1047 63.8837 41.8933 63.9929 41.6573C64.1021 41.4212 64.1621 41.1654 64.1693 40.9054C64.1765 40.6454 64.1307 40.3866 64.0346 40.1449C63.9386 39.9032 63.7944 39.6835 63.6107 39.4993Z" fill="white"/>
<rect x="0.5" y="0.5" width="89" height="89" rx="44.5" stroke="#E6E6E6"/>
</svg>
