<svg width="1040" height="371" viewBox="0 0 1040 371" fill="none" xmlns="http://www.w3.org/2000/svg">
<rect width="1040" height="371" rx="18.0935" fill="#FBFBFB" style="fill:#FBFBFB;fill:color(display-p3 0.9843 0.9843 0.9843);fill-opacity:1;"/>
<path d="M40 331L370.932 244.055L760 200.76L1000 40V331L40 331Z" fill="url(#paint0_linear_8515_971)" style=""/>
<path d="M1000 40L766.497 196.408C762.229 199.267 757.334 201.057 752.228 201.625L373.259 243.796C371.71 243.968 370.175 244.254 368.667 244.65L40 331" stroke="#FF7E36" style="stroke:#FF7E36;stroke:color(display-p3 1.0000 0.4941 0.2118);stroke-opacity:1;" stroke-width="5" stroke-linecap="round"/>
<path d="M62.4219 49.6016V53.4688H55.3906C55.5078 56.2617 58.0273 58.8203 63.2812 59.7969L61.3281 63.625C57.3047 62.8438 54.5312 61.0664 52.9492 58.6836C51.3867 61.3008 48.5547 63.293 44.375 64.1328L42.3438 60.2656C47.7148 59.25 50.2148 56.457 50.3516 53.4688H43.2812V49.6016H50.3906V46.125H55.3906V49.6016H62.4219ZM41.1328 65.6562C47.6953 65.6562 56.4453 65.5977 63.9453 64.6406L64.2578 68.2344C61.3281 68.7422 58.3203 69.0742 55.3516 69.2891V80.5H50.3906V69.5625C47.3047 69.6797 44.3555 69.6797 41.7578 69.6797L41.1328 65.6562ZM66.0938 81.5938V46.0859H71.0156V81.5938H66.0938ZM85.5469 47.5703C90.0781 47.5312 93.6914 50.1289 94.668 53.9375H100.625V46.0469H105.586V65.1484H100.625V57.9219H94.6875C93.7695 61.8281 90.1172 64.4844 85.5469 64.4844C80.0781 64.4844 76.0547 60.9297 76.0938 55.9688C76.0547 51.1055 80.0781 47.5312 85.5469 47.5703ZM80.8203 55.9688C80.8008 58.625 82.7539 60.3047 85.5469 60.3047C88.2422 60.3047 90.1758 58.625 90.1953 55.9688C90.1758 53.3125 88.2422 51.6914 85.5469 51.7109C82.7539 51.6914 80.8008 53.3125 80.8203 55.9688ZM81.875 81.2031V66.7109H86.7969V70.1484H100.625V66.7109H105.586V81.2031H81.875ZM86.7969 77.1797H100.625V73.9766H86.7969V77.1797ZM142.695 61.7891V65.4219H134.688V67.4922H138.789V75.8906H118.867V77.9609H139.844V81.3594H113.906V72.7266H133.867V70.9297H113.867V67.4922H118.203V65.4219H110.156V61.7891H142.695ZM114.141 50.0312V46.6719H138.75V54.9922H119.18V56.75H139.375V60.1484H114.219V51.8281H133.75V50.0312H114.141ZM123.164 67.4922H129.688V65.4219H123.164V67.4922ZM290.391 47.8828V51.8281H279.375V59.0156C285.566 58.9766 289.316 58.7031 293.477 57.8438L293.984 61.7109C289.375 62.7852 285.039 62.9023 277.383 62.8828H274.414V47.8828H290.391ZM277.773 69.1328V65.1875H301.367V74.9922H282.734V77.2188H302.383V81.2031H277.852V71.2422H296.406V69.1328H277.773ZM296.367 63.7422V46.0469H301.367V52.7656H306.172V56.8281H301.367V63.7422H296.367ZM321.172 50.8906C321.152 55.6367 323.594 60.0312 329.297 61.7891L326.68 65.6953C322.852 64.3672 320.254 61.9258 318.75 58.7227C317.188 62.4336 314.316 65.3438 310.039 66.7891L307.422 62.8047C313.496 60.8516 316.113 56.0859 316.133 51.125V47.8828H321.172V50.8906ZM313.32 74.7188C313.32 70.3438 317.969 67.7852 325.547 67.8047C333.145 67.7852 337.793 70.3438 337.812 74.7188C337.793 79.1133 333.145 81.6133 325.547 81.5938C317.969 81.6133 313.32 79.1133 313.32 74.7188ZM318.281 74.7188C318.281 76.6914 320.84 77.7266 325.547 77.7266C330.273 77.7266 332.832 76.6914 332.852 74.7188C332.832 72.6875 330.273 71.6719 325.547 71.6719C320.84 71.6719 318.281 72.6875 318.281 74.7188ZM326.055 56.6328V52.5703H332.734V46.0469H337.695V66.8672H332.734V56.6328H326.055Z" fill="#141414" style="fill:#141414;fill:color(display-p3 0.0800 0.0800 0.0800);fill-opacity:1;"/>
<path d="M167.344 49.7188V78H161.445V55.3047H161.289L154.805 59.3672V54.1719L161.797 49.7188H167.344ZM184.883 78.3906C177.793 78.3906 173.516 73.1172 173.516 63.8594C173.516 54.6211 177.832 49.3281 184.883 49.3281C191.934 49.3281 196.25 54.6211 196.25 63.8594C196.25 73.1562 191.953 78.3906 184.883 78.3906ZM179.531 63.8594C179.492 70.3828 181.602 73.5469 184.883 73.5469C188.164 73.5469 190.254 70.3828 190.234 63.8594C190.254 57.3945 188.145 54.1523 184.883 54.1328C181.621 54.1523 179.531 57.3945 179.531 63.8594ZM211.289 78.3906C204.199 78.3906 199.922 73.1172 199.922 63.8594C199.922 54.6211 204.238 49.3281 211.289 49.3281C218.34 49.3281 222.656 54.6211 222.656 63.8594C222.656 73.1562 218.359 78.3906 211.289 78.3906ZM205.938 63.8594C205.898 70.3828 208.008 73.5469 211.289 73.5469C214.57 73.5469 216.66 70.3828 216.641 63.8594C216.66 57.3945 214.551 54.1523 211.289 54.1328C208.027 54.1523 205.938 57.3945 205.938 63.8594ZM234.141 63.8594C229.902 63.8594 227.617 60.7734 227.617 56.3203C227.617 51.8477 230.02 48.7422 234.141 48.7422C238.379 48.7422 240.645 51.8477 240.664 56.3203C240.645 60.8125 238.32 63.8594 234.141 63.8594ZM231.602 56.3203C231.621 58.7617 232.5 60.3633 234.141 60.3828C235.82 60.3633 236.66 58.7617 236.68 56.3203C236.66 53.8789 235.898 52.2188 234.141 52.2188C232.48 52.2383 231.621 53.918 231.602 56.3203ZM231.68 78L251.133 49.7188H255.508L236.055 78H231.68ZM246.719 71.3984C246.719 66.9258 249.121 63.8398 253.203 63.8203C257.48 63.8398 259.746 66.9258 259.766 71.3984C259.746 75.8906 257.422 78.9375 253.203 78.9375C249.004 78.9375 246.719 75.8516 246.719 71.3984ZM250.703 71.3984C250.723 73.8398 251.602 75.4609 253.203 75.4609C254.922 75.4609 255.762 73.8398 255.781 71.3984C255.762 68.957 254.98 67.2969 253.203 67.3359C251.562 67.3164 250.723 68.9961 250.703 71.3984Z" fill="#FF7E36" style="fill:#FF7E36;fill:color(display-p3 1.0000 0.4941 0.2118);fill-opacity:1;"/>
<path d="M851.582 319.809H850.098L850.215 316.898L847.754 318.461L847.012 317.172L849.609 315.844L847.012 314.496L847.754 313.207L850.215 314.77L850.098 311.859H851.582L851.445 314.77L853.906 313.207L854.668 314.496L852.07 315.844L854.668 317.172L853.906 318.461L851.445 316.898L851.582 319.809ZM861.914 326V324.438L866.816 319.496C868.369 317.885 869.141 316.986 869.141 315.746C869.141 314.35 868.008 313.461 866.523 313.461C864.951 313.461 863.955 314.457 863.945 315.961H861.914C861.895 313.373 863.867 311.664 866.562 311.664C869.287 311.664 871.172 313.393 871.191 315.688C871.172 317.27 870.43 318.529 867.773 321.137L864.902 324.047V324.164H871.426V326H861.914ZM878.73 326.195C875.459 326.195 873.535 323.559 873.535 318.93C873.535 314.33 875.479 311.664 878.73 311.664C881.973 311.664 883.916 314.33 883.926 318.93C883.916 323.559 882.002 326.195 878.73 326.195ZM875.684 318.93C875.674 322.455 876.816 324.34 878.73 324.34C880.635 324.34 881.777 322.455 881.777 318.93C881.777 315.414 880.625 313.49 878.73 313.48C876.826 313.49 875.684 315.414 875.684 318.93ZM886.152 326V324.438L891.055 319.496C892.607 317.885 893.379 316.986 893.379 315.746C893.379 314.35 892.246 313.461 890.762 313.461C889.189 313.461 888.193 314.457 888.184 315.961H886.152C886.133 313.373 888.105 311.664 890.801 311.664C893.525 311.664 895.41 313.393 895.43 315.688C895.41 317.27 894.668 318.529 892.012 321.137L889.141 324.047V324.164H895.664V326H886.152ZM898.047 326V324.438L902.949 319.496C904.502 317.885 905.273 316.986 905.273 315.746C905.273 314.35 904.141 313.461 902.656 313.461C901.084 313.461 900.088 314.457 900.078 315.961H898.047C898.027 313.373 900 311.664 902.695 311.664C905.42 311.664 907.305 313.393 907.324 315.688C907.305 317.27 906.562 318.529 903.906 321.137L901.035 324.047V324.164H907.559V326H898.047ZM919.785 311.938V313.422H909.355V311.938H913.652V310.082H915.508V311.938H919.785ZM910.312 317.387C910.303 315.473 912.041 314.223 914.57 314.203C917.09 314.223 918.809 315.473 918.809 317.387C918.809 319.311 917.09 320.57 914.57 320.57C912.041 320.57 910.303 319.311 910.312 317.387ZM911.523 323.5V321.996H923.086V327.66H921.23V323.5H911.523ZM912.109 317.387C912.09 318.471 913.086 319.125 914.57 319.125C916.055 319.125 917.051 318.471 917.07 317.387C917.051 316.312 916.055 315.639 914.57 315.629C913.086 315.639 912.09 316.312 912.109 317.387ZM921.23 321.098V310.16H923.086V314.906H925.625V316.449H923.086V321.098H921.23ZM941.211 310.18V323.109H939.355V317.152H934.551V315.668H939.355V313.832H934.551V312.348H939.355V310.18H941.211ZM927.656 320.609V311.391H929.492V319.047C931.816 319.037 934.023 318.91 936.523 318.441L936.719 319.965C933.945 320.482 931.572 320.59 929.004 320.609H927.656ZM929.805 327.289V321.977H931.68V325.785H941.66V327.289H929.805ZM958.086 318.227V319.711H952.793V323.988H959.922V325.512H943.906V323.988H950.957V319.711H945.898V311.508H957.93V313.012H947.754V318.227H958.086ZM980.625 310.16V327.66H978.75V310.16H980.625ZM966.25 322.973C970.898 320.756 973.174 317.602 973.535 313.52H967.09V312.035H975.41C975.41 317.162 973.232 321.596 967.227 324.477L966.25 322.973ZM997.891 311V312.484H992.559C992.666 314.389 995.186 316.068 998.438 316.469L997.734 317.934C994.736 317.543 992.275 316.146 991.338 314.184C990.381 316.146 987.93 317.543 984.941 317.934L984.238 316.469C987.51 316.068 990.01 314.379 990.098 312.484H984.824V311H997.891ZM983.34 320.57V319.066H999.355V320.57H992.402V323.969H990.566V320.57H983.34ZM985.332 327.289V322.289H987.188V325.785H997.578V327.289H985.332Z" fill="#B0B0B0" style="fill:#B0B0B0;fill:color(display-p3 0.6917 0.6899 0.6899);fill-opacity:1;"/>
<defs>
<linearGradient id="paint0_linear_8515_971" x1="520" y1="331" x2="520" y2="40" gradientUnits="userSpaceOnUse">
<stop stop-color="#FF7E36" stop-opacity="0" style="stop-color:none;stop-opacity:0;"/>
<stop offset="0.64981" stop-color="#FF7E36" stop-opacity="0.5" style="stop-color:#FF7E36;stop-color:color(display-p3 1.0000 0.4941 0.2118);stop-opacity:0.5;"/>
<stop offset="1" stop-color="#FF7E36" stop-opacity="0.5" style="stop-color:#FF7E36;stop-color:color(display-p3 1.0000 0.4941 0.2118);stop-opacity:0.5;"/>
</linearGradient>
</defs>
</svg>
