<svg width="36" height="36" viewBox="0 0 36 36" fill="none" xmlns="http://www.w3.org/2000/svg">
<path d="M16.935 18L22.245 12.69C22.5244 12.409 22.6812 12.0288 22.6812 11.6325C22.6812 11.2363 22.5244 10.8561 22.245 10.575C22.1055 10.4345 21.9396 10.3229 21.7568 10.2467C21.5741 10.1706 21.378 10.1313 21.18 10.1313C20.982 10.1313 20.7859 10.1706 20.6031 10.2467C20.4203 10.3229 20.2544 10.4345 20.115 10.575L13.755 16.935C13.6144 17.0745 13.5028 17.2404 13.4266 17.4232C13.3505 17.606 13.3113 17.802 13.3113 18C13.3113 18.1981 13.3505 18.3941 13.4266 18.5769C13.5028 18.7597 13.6144 18.9256 13.755 19.065L20.115 25.5C20.2551 25.6391 20.4214 25.7491 20.6041 25.8237C20.7869 25.8983 20.9826 25.9362 21.18 25.935C21.3774 25.9362 21.5731 25.8983 21.7558 25.8237C21.9386 25.7491 22.1048 25.6391 22.245 25.5C22.5244 25.219 22.6812 24.8388 22.6812 24.4425C22.6812 24.0463 22.5244 23.6661 22.245 23.385L16.935 18Z" fill="white" style="fill:white;fill-opacity:1;"/>
</svg>
