<svg width="86" height="86" viewBox="0 0 86 86" fill="none" xmlns="http://www.w3.org/2000/svg">
<path d="M76.8686 3H77.8V70.8686H9C9 52.8687 16.1504 35.6061 28.8782 22.8782C41.6061 10.1504 58.8687 3 76.8686 3V3Z" fill="#80E4AD"/>
<path d="M9 3H9.93145C18.8441 3 27.6694 4.75547 35.9036 8.16619C44.1378 11.5769 51.6196 16.5761 57.9218 22.8782C64.2239 29.1804 69.2231 36.6622 72.6338 44.8964C76.0445 53.1306 77.8 61.9559 77.8 70.8686H9V3Z" fill="#B9ECCF"/>
<path d="M9 4.24637C46.5754 4.24637 59.6712 45.2009 59.6712 82.3847L9 71.5778V4.24637Z" fill="#33D37B"/>
</svg>
