<svg width="60" height="60" viewBox="0 0 60 60" fill="none" xmlns="http://www.w3.org/2000/svg">
<path d="M20.0325 11.4125C21.8825 10.4225 23.8975 10 27.85 10H32.145C36.1 10 38.1125 10.4225 39.965 11.4125C41.54 12.255 42.745 13.4575 43.585 15.0325C44.575 16.8825 44.9975 18.8975 44.9975 22.8525V37.1475C44.9975 41.1025 44.575 43.115 43.585 44.9675C42.7723 46.5125 41.51 47.7748 39.965 48.5875C38.115 49.5775 36.1 50 32.145 50H27.85C23.895 50 21.8825 49.5775 20.03 48.5875C18.485 47.7748 17.2227 46.5125 16.41 44.9675C15.4225 43.1175 15 41.1025 15 37.15V22.85C15 18.895 15.4225 16.8825 16.4125 15.03C17.2254 13.4851 18.4876 12.2254 20.0325 11.4125ZM32.1475 5H27.85C22.815 5 20.115 5.695 17.67 7.0025C15.2548 8.28229 13.2802 10.2587 12.0025 12.675C10.695 15.1175 10 17.8175 10 22.8525V37.1475C10 42.1825 10.695 44.8825 12.0025 47.325C13.2811 49.743 15.2576 51.7204 17.675 53C20.12 54.305 22.82 55.0025 27.855 55.0025H32.15C37.185 55.0025 39.885 54.305 42.3275 53C44.7449 51.7204 46.7214 49.743 48 47.325C49.305 44.8825 50.0025 42.1825 50.0025 37.1475V22.85C50.0025 17.815 49.305 15.115 48 12.67C46.7206 10.2539 44.7442 8.27832 42.3275 7C39.8825 5.695 37.18 5 32.1475 5ZM32.5 15H27.5V27.5H32.5V15ZM19.395 34.395L30 45.0025L40.605 34.395L37.07 30.86L30 37.93L22.9275 30.86L19.395 34.395Z" fill="white"/>
</svg>
