<svg width="24" height="24" viewBox="0 0 24 24" fill="none" xmlns="http://www.w3.org/2000/svg">
<path d="M20.17 9.22966L6.17001 3.44966C5.64029 3.23045 5.05884 3.16761 4.49451 3.26858C3.93018 3.36954 3.4066 3.63009 2.98575 4.01938C2.5649 4.40867 2.2644 4.91039 2.11983 5.46516C1.97526 6.01992 1.99268 6.60449 2.17001 7.14966L3.71001 11.9997L2.13001 16.8497C1.94788 17.397 1.92742 17.9853 2.07108 18.544C2.21475 19.1026 2.51644 19.6081 2.94001 19.9997C3.48465 20.5047 4.19729 20.7898 4.94001 20.7997C5.33474 20.7994 5.72554 20.7212 6.09001 20.5697L20.14 14.7897C20.6872 14.5621 21.1547 14.1776 21.4836 13.6846C21.8125 13.1916 21.988 12.6123 21.988 12.0197C21.988 11.427 21.8125 10.8477 21.4836 10.3547C21.1547 9.86175 20.6872 9.47723 20.14 9.24966L20.17 9.22966ZM5.36001 18.6997C5.18361 18.7724 4.99007 18.7932 4.80225 18.7595C4.61442 18.7259 4.44015 18.6392 4.30001 18.5097C4.168 18.3835 4.07304 18.2236 4.02545 18.0473C3.97785 17.8711 3.97943 17.6851 4.03001 17.5097L5.49001 12.9997H19.22L5.36001 18.6997ZM5.49001 10.9997L4.00001 6.52966C3.94943 6.35421 3.94785 6.16826 3.99545 5.99198C4.04304 5.8157 4.138 5.65581 4.27001 5.52966C4.36412 5.43094 4.47742 5.35251 4.60296 5.2992C4.7285 5.24589 4.86362 5.21882 5.00001 5.21966C5.13406 5.21992 5.26669 5.24713 5.39001 5.29966L19.22 10.9997H5.49001Z" fill="#FF7E36"/>
</svg>
