<svg width="29" height="15" viewBox="0 0 29 15" fill="none" xmlns="http://www.w3.org/2000/svg">
<rect y="0.365234" width="28.5394" height="14.2697" rx="2.84645" fill="#FF7E36" style="fill:#FF7E36;fill:color(display-p3 1.0000 0.4941 0.2118);fill-opacity:1;"/>
<path d="M10.1208 4.46241V10.5H9.15342L6.29307 6.37209H6.24304V10.5H5.15894V4.46241H6.14297L8.98664 8.59032H9.04501V4.46241H10.1208ZM11.2382 10.5V4.46241H15.166V5.37138H12.3223V7.02255H14.9575V7.93152H12.3223V9.58269H15.1827V10.5H11.2382ZM17.4843 10.5L15.7831 4.46241H16.9506L18.043 8.90721H18.1014L19.2606 4.46241H20.328L21.4955 8.91555H21.5455L22.6379 4.46241H23.8054L22.1042 10.5H21.0285L19.8193 6.25534H19.7776L18.5601 10.5H17.4843Z" fill="white" style="fill:white;fill-opacity:1;"/>
</svg>
