<svg width="40" height="20" viewBox="0 0 40 20" fill="none" xmlns="http://www.w3.org/2000/svg">
<rect width="40" height="20" rx="4" fill="#FF7E36" style="fill:#FF7E36;fill:color(display-p3 1.0000 0.4941 0.2118);fill-opacity:1;"/>
<path d="M14.1699 5.51562V14H12.8105L8.79102 8.19922H8.7207V14H7.19727V5.51562H8.58008L12.5762 11.3164H12.6582V5.51562H14.1699ZM15.7402 14V5.51562H21.2598V6.79297H17.2637V9.11328H20.9668V10.3906H17.2637V12.7109H21.2832V14H15.7402ZM24.5176 14L22.127 5.51562H23.7676L25.3027 11.7617H25.3848L27.0137 5.51562H28.5137L30.1543 11.7734H30.2246L31.7598 5.51562H33.4004L31.0098 14H29.498L27.7988 8.03516H27.7402L26.0293 14H24.5176Z" fill="white" style="fill:white;fill-opacity:1;"/>
</svg>
