<svg width="14" height="14" viewBox="0 0 14 14" fill="none" xmlns="http://www.w3.org/2000/svg">
<path d="M12.0312 1.53125C11.9793 1.53125 11.926 1.54082 11.8727 1.5627L3.99219 4.7291H1.75C1.62969 4.7291 1.53125 4.83027 1.53125 4.95605V9.04394C1.53125 9.16973 1.62969 9.2709 1.75 9.2709H3.13906C3.08848 9.42949 3.0625 9.59766 3.0625 9.76855C3.0625 10.6695 3.79805 11.4023 4.70312 11.4023C5.46055 11.4023 6.09902 10.8883 6.28769 10.1937L11.874 12.4387C11.9273 12.4592 11.9807 12.4701 12.0326 12.4701C12.2637 12.4701 12.4701 12.276 12.4701 12.0162V1.98516C12.4687 1.72539 12.2637 1.53125 12.0312 1.53125ZM4.70312 10.4221C4.34082 10.4221 4.04687 10.1295 4.04687 9.76855C4.04687 9.61543 4.10019 9.46914 4.19727 9.35293L5.35801 9.81914C5.33066 10.1555 5.04766 10.4221 4.70312 10.4221Z" fill="#FF7326" style="fill:#FF7326;fill:color(display-p3 1.0000 0.4529 0.1475);fill-opacity:1;"/>
</svg>
