<svg width="28" height="29" viewBox="0 0 28 29" fill="none" xmlns="http://www.w3.org/2000/svg">
<path d="M13.1716 10.37L6.57996 16.9733C6.47061 17.0818 6.38382 17.2108 6.32459 17.353C6.26536 17.4951 6.23486 17.6476 6.23486 17.8016C6.23486 17.9557 6.26536 18.1082 6.32459 18.2503C6.38382 18.3925 6.47061 18.5215 6.57996 18.63C6.79855 18.8473 7.09424 18.9692 7.40246 18.9692C7.71068 18.9692 8.00637 18.8473 8.22496 18.63L14.0583 12.855L19.8333 18.63C20.0519 18.8473 20.3476 18.9692 20.6558 18.9692C20.964 18.9692 21.2597 18.8473 21.4783 18.63C21.5885 18.5219 21.6762 18.3931 21.7363 18.2509C21.7964 18.1087 21.8277 17.956 21.8283 17.8016C21.8277 17.6473 21.7964 17.4946 21.7363 17.3524C21.6762 17.2102 21.5885 17.0814 21.4783 16.9733L14.8866 10.37C14.7774 10.2516 14.6448 10.157 14.4972 10.0924C14.3496 10.0278 14.1902 9.99439 14.0291 9.99439C13.868 9.99439 13.7086 10.0278 13.5611 10.0924C13.4135 10.157 13.2809 10.2516 13.1716 10.37Z" fill="#FF6C1A" style="fill:#FF6C1A;fill:color(display-p3 1.0000 0.4235 0.1017);fill-opacity:1;"/>
</svg>
