<svg width="36" height="36" viewBox="0 0 36 36" fill="none" xmlns="http://www.w3.org/2000/svg">
<path d="M19.065 18L13.755 23.31C13.4756 23.591 13.3188 23.9712 13.3188 24.3675C13.3188 24.7637 13.4756 25.1439 13.755 25.425C13.8944 25.5655 14.0603 25.6771 14.2431 25.7533C14.4259 25.8294 14.622 25.8687 14.82 25.8687C15.018 25.8687 15.2141 25.8294 15.3969 25.7533C15.5796 25.6771 15.7455 25.5655 15.885 25.425L22.245 19.065C22.3856 18.9255 22.4972 18.7596 22.5733 18.5768C22.6495 18.394 22.6887 18.198 22.6887 18C22.6887 17.8019 22.6495 17.6059 22.5733 17.4231C22.4972 17.2403 22.3856 17.0744 22.245 16.935L15.885 10.5C15.7448 10.3609 15.5786 10.2509 15.3959 10.1763C15.2131 10.1017 15.0174 10.0638 14.82 10.065C14.6226 10.0638 14.4269 10.1017 14.2441 10.1763C14.0614 10.2509 13.8952 10.3609 13.755 10.5C13.4756 10.781 13.3188 11.1612 13.3188 11.5575C13.3188 11.9537 13.4756 12.3339 13.755 12.615L19.065 18Z" fill="white" style="fill:white;fill-opacity:1;"/>
</svg>
