<svg width="28" height="29" viewBox="0 0 28 29" fill="none" xmlns="http://www.w3.org/2000/svg">
<path d="M26.8334 11.8283C26.8911 10.1584 26.5259 8.501 25.7718 7.00998C25.2601 6.39818 24.55 5.98531 23.7651 5.84331C20.5189 5.54876 17.2592 5.42803 14.0001 5.48165C10.7529 5.4256 7.50494 5.54243 4.27011 5.83165C3.63057 5.94798 3.03872 6.24796 2.56678 6.69498C1.51678 7.66331 1.40011 9.31998 1.28345 10.72C1.11418 13.2371 1.11418 15.7628 1.28345 18.28C1.3172 19.068 1.43452 19.8501 1.63345 20.6133C1.77412 21.2026 2.05872 21.7477 2.46178 22.2C2.93693 22.6707 3.54256 22.9877 4.20011 23.11C6.71535 23.4205 9.2497 23.5491 11.7834 23.495C15.8668 23.5533 19.4484 23.495 23.6834 23.1683C24.3571 23.0536 24.9798 22.7361 25.4684 22.2583C25.7951 21.9316 26.039 21.5316 26.1801 21.0916C26.5973 19.8114 26.8023 18.4714 26.7868 17.125C26.8334 16.4716 26.8334 12.5283 26.8334 11.8283ZM11.3634 17.825V10.6033L18.2701 14.2316C16.3334 15.305 13.7784 16.5183 11.3634 17.825Z" fill="#FF7E36"/>
</svg>
